<?xml version="1.0" encoding="UTF-8"?>
<!DOCTYPE svg PUBLIC "-//W3C//DTD SVG 1.1//EN" "http://www.w3.org/Graphics/SVG/1.1/DTD/svg11.dtd">
<svg xmlns="http://www.w3.org/2000/svg" version="1.1" width="500px" height="500px" style="shape-rendering:geometricPrecision; text-rendering:geometricPrecision; image-rendering:optimizeQuality; fill-rule:evenodd; clip-rule:evenodd" xmlns:xlink="http://www.w3.org/1999/xlink">
<g><path style="opacity:0.816" fill="#b599ff" d="M 171.5,47.5 C 170.244,47.5386 169.244,47.0386 168.5,46C 159.99,45.1768 151.656,45.3434 143.5,46.5C 141.712,46.7852 140.045,46.4519 138.5,45.5C 139.527,43.976 141.027,43.3094 143,43.5C 153.667,44.8333 164.333,44.8333 175,43.5C 176.973,43.3094 178.473,43.976 179.5,45.5C 176.694,46.1676 174.028,46.8343 171.5,47.5 Z"/></g>
<g><path style="opacity:0.83" fill="#bba3ff" d="M 287.5,46.5 C 270.833,45.1667 254.167,45.1667 237.5,46.5C 235.712,46.7852 234.045,46.4519 232.5,45.5C 232.709,44.914 233.043,44.414 233.5,44C 238.167,43.8333 242.833,43.6667 247.5,43.5C 260.509,44.5342 273.509,44.5342 286.5,43.5C 288.712,43.4123 290.712,43.9123 292.5,45C 291.095,46.2692 289.429,46.7692 287.5,46.5 Z"/></g>
<g><path style="opacity:0.998" fill="#945eff" d="M 171.5,47.5 C 176.427,50.3373 179.093,54.6706 179.5,60.5C 179.5,86.1667 179.5,111.833 179.5,137.5C 203.5,137.5 227.5,137.5 251.5,137.5C 251.831,111.995 251.498,86.6612 250.5,61.5C 249.934,58.1268 248.601,55.1268 246.5,52.5C 246.167,50.1667 244.833,48.8333 242.5,48.5C 240.597,48.2041 238.93,47.5375 237.5,46.5C 254.167,45.1667 270.833,45.1667 287.5,46.5C 281.167,48.8333 276.833,53.1667 274.5,59.5C 273.501,109.331 273.168,159.331 273.5,209.5C 278.833,209.5 284.167,209.5 289.5,209.5C 299.11,210.759 307.944,214.093 316,219.5C 342.236,214.391 367.069,218.224 390.5,231C 393.312,232.977 395.978,235.144 398.5,237.5C 399.518,236.807 400.518,236.141 401.5,235.5C 403.027,235.573 404.027,234.906 404.5,233.5C 413.202,226.475 422.869,221.142 433.5,217.5C 433.762,218.978 433.429,220.311 432.5,221.5C 424.496,225.833 416.829,230.667 409.5,236C 406.882,238.106 404.882,240.606 403.5,243.5C 403.738,245.404 404.738,246.738 406.5,247.5C 413.184,256.004 417.684,265.671 420,276.5C 426.856,331.633 405.023,370.467 354.5,393C 324.98,404.635 294.48,408.469 263,404.5C 249.508,405.462 236.008,405.629 222.5,405C 217.237,404.915 212.737,403.082 209,399.5C 207.586,395.248 209.086,392.748 213.5,392C 218.5,391.333 223.5,391.333 228.5,392C 240.621,394.225 252.788,396.058 265,397.5C 267.833,397.333 270.667,397.167 273.5,397C 277.672,395.412 281.672,393.579 285.5,391.5C 288.427,390.243 290.761,388.243 292.5,385.5C 293.167,384.167 294.167,383.167 295.5,382.5C 296.906,382.027 297.573,381.027 297.5,379.5C 298.167,378.167 299.167,377.167 300.5,376.5C 301.906,376.027 302.573,375.027 302.5,373.5C 306.532,367.81 310.532,362.143 314.5,356.5C 315.906,356.027 316.573,355.027 316.5,353.5C 325.917,336.33 335.584,319.33 345.5,302.5C 346.906,302.027 347.573,301.027 347.5,299.5C 348.11,297.566 349.11,295.899 350.5,294.5C 351.906,294.027 352.573,293.027 352.5,291.5C 356.185,284.125 360.851,277.459 366.5,271.5C 367.906,271.027 368.573,270.027 368.5,268.5C 368.833,267.5 369.5,266.833 370.5,266.5C 371.906,266.027 372.573,265.027 372.5,263.5C 373.167,262.167 374.167,261.167 375.5,260.5C 377.262,259.738 378.262,258.404 378.5,256.5C 379.167,255.167 380.167,254.167 381.5,253.5C 386.44,250.23 390.773,246.23 394.5,241.5C 395.885,240.053 395.552,239.053 393.5,238.5C 392.5,238.167 391.833,237.5 391.5,236.5C 391.027,235.094 390.027,234.427 388.5,234.5C 388.027,233.094 387.027,232.427 385.5,232.5C 364.555,221.899 342.555,218.899 319.5,223.5C 330.821,238.242 334.988,254.908 332,273.5C 326.526,301.953 311.36,323.453 286.5,338C 272.864,344.049 258.864,345.049 244.5,341C 241.379,339.694 238.713,337.86 236.5,335.5C 236.027,334.094 235.027,333.427 233.5,333.5C 226.54,325.797 223.206,316.631 223.5,306C 223.555,292.918 227.222,281.085 234.5,270.5C 235.906,270.027 236.573,269.027 236.5,267.5C 246.415,252.582 259.415,241.249 275.5,233.5C 278.46,232.968 278.793,232.301 276.5,231.5C 268.167,231.5 259.833,231.5 251.5,231.5C 254.641,230.679 257.975,230.179 261.5,230C 260.756,228.961 259.756,228.461 258.5,228.5C 254.892,225.967 252.225,222.634 250.5,218.5C 228.158,230.342 212.324,248.009 203,271.5C 199.529,282.716 196.696,294.049 194.5,305.5C 193.833,305.5 193.167,305.5 192.5,305.5C 192.946,286.484 198.279,268.818 208.5,252.5C 209.906,252.027 210.573,251.027 210.5,249.5C 213.074,244.591 216.408,240.258 220.5,236.5C 224.436,234.234 227.769,231.234 230.5,227.5C 231.891,225.11 233.891,223.443 236.5,222.5C 238.027,222.573 239.027,221.906 239.5,220.5C 241.027,220.573 242.027,219.906 242.5,218.5C 244.883,216.642 247.55,215.308 250.5,214.5C 251.498,189.339 251.831,164.005 251.5,138.5C 227.5,138.5 203.5,138.5 179.5,138.5C 179.169,165.005 179.502,191.339 180.5,217.5C 183.494,225.143 189.161,229.477 197.5,230.5C 197.167,231.5 196.5,232.167 195.5,232.5C 176.544,231.679 157.544,231.179 138.5,231C 147.476,229.357 153.309,224.19 156,215.5C 156.667,163.833 156.667,112.167 156,60.5C 154.046,53.72 149.88,49.0533 143.5,46.5C 151.656,45.3434 159.99,45.1768 168.5,46C 169.244,47.0386 170.244,47.5386 171.5,47.5 Z M 287.5,212.5 C 294.352,213.895 301.019,215.895 307.5,218.5C 308.833,219.5 308.833,220.5 307.5,221.5C 299.698,222.658 292.364,224.991 285.5,228.5C 284.609,227.89 283.609,227.557 282.5,227.5C 280.167,225.833 278.167,223.833 276.5,221.5C 276.204,219.597 275.537,217.93 274.5,216.5C 274.5,215.167 274.5,213.833 274.5,212.5C 278.833,212.5 283.167,212.5 287.5,212.5 Z M 315.5,225.5 C 316.167,226.833 317.167,227.833 318.5,228.5C 327.343,242.209 330.509,257.209 328,273.5C 324.722,290.723 317.222,305.723 305.5,318.5C 302.5,320.833 299.833,323.5 297.5,326.5C 283.053,338.457 266.72,342.123 248.5,337.5C 247.71,336.599 246.71,335.932 245.5,335.5C 244.167,334.5 242.833,333.5 241.5,332.5C 241.573,330.973 240.906,329.973 239.5,329.5C 235.901,305.898 241.401,284.565 256,265.5C 271.377,246.153 290.71,232.486 314,224.5C 314.765,224.57 315.265,224.903 315.5,225.5 Z M 402.5,349.5 C 401.094,349.973 400.427,350.973 400.5,352.5C 395.843,357.793 391.177,363.126 386.5,368.5C 383.911,369.419 381.911,371.086 380.5,373.5C 357.688,390.329 332.022,399.663 303.5,401.5C 292.986,401.828 282.653,401.494 272.5,400.5C 272.833,400.5 273.167,400.5 273.5,400.5C 275.698,400.88 277.365,400.213 278.5,398.5C 289.063,394.215 298.73,388.382 307.5,381C 323.272,366.245 336.772,349.745 348,331.5C 358.333,312.5 368.667,293.5 379,274.5C 385.226,264.274 392.226,254.607 400,245.5C 412.575,259.889 418.409,276.722 417.5,296C 417.657,315.352 412.657,333.185 402.5,349.5 Z"/></g>
<g><path style="opacity:0.906" fill="#c2afff" d="M 242.5,48.5 C 244.833,48.8333 246.167,50.1667 246.5,52.5C 244.833,51.5 243.5,50.1667 242.5,48.5 Z"/></g>
<g><path style="opacity:0.276" fill="#ccc7ff" d="M 179.5,60.5 C 180.498,85.6612 180.831,110.995 180.5,136.5C 203.833,136.5 227.167,136.5 250.5,136.5C 250.5,111.5 250.5,86.5 250.5,61.5C 251.498,86.6612 251.831,111.995 251.5,137.5C 227.5,137.5 203.5,137.5 179.5,137.5C 179.5,111.833 179.5,86.1667 179.5,60.5 Z"/></g>
<g><path style="opacity:0.413" fill="#c0b2ff" d="M 274.5,59.5 C 274.5,108.833 274.5,158.167 274.5,207.5C 279.654,208.006 284.654,208.673 289.5,209.5C 284.167,209.5 278.833,209.5 273.5,209.5C 273.168,159.331 273.501,109.331 274.5,59.5 Z"/></g>
<g><path style="opacity:0.499" fill="#c1b4ff" d="M 250.5,214.5 C 250.5,189.5 250.5,164.5 250.5,139.5C 227.167,139.5 203.833,139.5 180.5,139.5C 180.5,165.5 180.5,191.5 180.5,217.5C 179.502,191.339 179.169,165.005 179.5,138.5C 203.5,138.5 227.5,138.5 251.5,138.5C 251.831,164.005 251.498,189.339 250.5,214.5 Z"/></g>
<g><path style="opacity:0.547" fill="#b49dff" d="M 287.5,212.5 C 283.167,212.5 278.833,212.5 274.5,212.5C 274.5,213.833 274.5,215.167 274.5,216.5C 273.549,215.081 273.216,213.415 273.5,211.5C 278.363,211.181 283.03,211.514 287.5,212.5 Z"/></g>
<g><path style="opacity:0.729" fill="#c6b8ff" d="M 242.5,218.5 C 242.027,219.906 241.027,220.573 239.5,220.5C 239.973,219.094 240.973,218.427 242.5,218.5 Z"/></g>
<g><path style="opacity:0.906" fill="#bfa9ff" d="M 274.5,216.5 C 275.537,217.93 276.204,219.597 276.5,221.5C 274.787,220.365 274.12,218.698 274.5,216.5 Z"/></g>
<g><path style="opacity:0.353" fill="#c6baff" d="M 307.5,218.5 C 311.31,219.754 311.31,220.754 307.5,221.5C 308.833,220.5 308.833,219.5 307.5,218.5 Z"/></g>
<g><path style="opacity:0.78" fill="#c0adff" d="M 239.5,220.5 C 239.027,221.906 238.027,222.573 236.5,222.5C 236.973,221.094 237.973,220.427 239.5,220.5 Z"/></g>
<g><path style="opacity:0.635" fill="#cac0ff" d="M 315.5,225.5 C 317.5,225.5 318.5,226.5 318.5,228.5C 317.167,227.833 316.167,226.833 315.5,225.5 Z"/></g>
<g><path style="opacity:0.624" fill="#c0aeff" d="M 282.5,227.5 C 283.609,227.557 284.609,227.89 285.5,228.5C 284.221,229.715 283.221,229.382 282.5,227.5 Z"/></g>
<g><path style="opacity:0.258" fill="#d1d1ff" d="M 258.5,228.5 C 259.756,228.461 260.756,228.961 261.5,230C 257.975,230.179 254.641,230.679 251.5,231.5C 250.226,230.811 250.226,229.977 251.5,229C 253.995,229.412 256.329,229.245 258.5,228.5 Z"/></g>
<g><path style="opacity:0.929" fill="#ae89ff" d="M 230.5,227.5 C 227.769,231.234 224.436,234.234 220.5,236.5C 223.231,232.766 226.564,229.766 230.5,227.5 Z"/></g>
<g><path style="opacity:0.498" fill="#d1cfff" d="M 276.5,231.5 C 278.793,232.301 278.46,232.968 275.5,233.5C 275.833,232.833 276.167,232.167 276.5,231.5 Z"/></g>
<g><path style="opacity:0.427" fill="#c4b7ff" d="M 385.5,232.5 C 387.027,232.427 388.027,233.094 388.5,234.5C 386.973,234.573 385.973,233.906 385.5,232.5 Z"/></g>
<g><path style="opacity:0.776" fill="#bfadff" d="M 404.5,233.5 C 404.027,234.906 403.027,235.573 401.5,235.5C 401.973,234.094 402.973,233.427 404.5,233.5 Z"/></g>
<g><path style="opacity:0.494" fill="#c2b3ff" d="M 388.5,234.5 C 390.027,234.427 391.027,235.094 391.5,236.5C 389.973,236.573 388.973,235.906 388.5,234.5 Z"/></g>
<g><path style="opacity:0.294" fill="#c8beff" d="M 393.5,238.5 C 395.552,239.053 395.885,240.053 394.5,241.5C 394.443,240.391 394.11,239.391 393.5,238.5 Z"/></g>
<g><path style="opacity:0.831" fill="#c1aeff" d="M 403.5,243.5 C 405.262,244.262 406.262,245.596 406.5,247.5C 404.738,246.738 403.738,245.404 403.5,243.5 Z"/></g>
<g><path style="opacity:0.969" fill="#b18fff" d="M 394.5,241.5 C 390.773,246.23 386.44,250.23 381.5,253.5C 385.227,248.77 389.56,244.77 394.5,241.5 Z"/></g>
<g><path style="opacity:0.525" fill="#c1b0ff" d="M 210.5,249.5 C 210.573,251.027 209.906,252.027 208.5,252.5C 208.427,250.973 209.094,249.973 210.5,249.5 Z"/></g>
<g><path style="opacity:0.725" fill="#c4b5ff" d="M 378.5,256.5 C 378.262,258.404 377.262,259.738 375.5,260.5C 375.738,258.596 376.738,257.262 378.5,256.5 Z"/></g>
<g><path style="opacity:0.722" fill="#c3b3ff" d="M 372.5,263.5 C 372.573,265.027 371.906,266.027 370.5,266.5C 370.427,264.973 371.094,263.973 372.5,263.5 Z"/></g>
<g><path style="opacity:0.498" fill="#c1b0ff" d="M 236.5,267.5 C 236.573,269.027 235.906,270.027 234.5,270.5C 234.427,268.973 235.094,267.973 236.5,267.5 Z"/></g>
<g><path style="opacity:0.694" fill="#c4b6ff" d="M 368.5,268.5 C 368.573,270.027 367.906,271.027 366.5,271.5C 366.427,269.973 367.094,268.973 368.5,268.5 Z"/></g>
<g><path style="opacity:0.49" fill="#c1b0ff" d="M 352.5,291.5 C 352.573,293.027 351.906,294.027 350.5,294.5C 350.427,292.973 351.094,291.973 352.5,291.5 Z"/></g>
<g><path style="opacity:0.427" fill="#c4b4ff" d="M 347.5,299.5 C 347.573,301.027 346.906,302.027 345.5,302.5C 345.427,300.973 346.094,299.973 347.5,299.5 Z"/></g>
<g><path style="opacity:0.255" fill="#cecaff" d="M 192.5,305.5 C 193.167,305.5 193.833,305.5 194.5,305.5C 193.452,307.933 192.786,307.933 192.5,305.5 Z"/></g>
<g><path style="opacity:0.82" fill="#baa1ff" d="M 305.5,318.5 C 303.833,322.167 301.167,324.833 297.5,326.5C 299.833,323.5 302.5,320.833 305.5,318.5 Z"/></g>
<g><path style="opacity:0.506" fill="#c0afff" d="M 239.5,329.5 C 240.906,329.973 241.573,330.973 241.5,332.5C 240.094,332.027 239.427,331.027 239.5,329.5 Z"/></g>
<g><path style="opacity:0.471" fill="#cfccff" d="M 233.5,333.5 C 235.027,333.427 236.027,334.094 236.5,335.5C 234.973,335.573 233.973,334.906 233.5,333.5 Z"/></g>
<g><path style="opacity:0.875" fill="#c2aeff" d="M 245.5,335.5 C 246.71,335.932 247.71,336.599 248.5,337.5C 246.821,337.715 245.821,337.048 245.5,335.5 Z"/></g>
<g><path style="opacity:0.533" fill="#bfabff" d="M 402.5,349.5 C 402.573,351.027 401.906,352.027 400.5,352.5C 400.427,350.973 401.094,349.973 402.5,349.5 Z"/></g>
<g><path style="opacity:0.435" fill="#c4b7ff" d="M 316.5,353.5 C 316.573,355.027 315.906,356.027 314.5,356.5C 314.427,354.973 315.094,353.973 316.5,353.5 Z"/></g>
<g><path style="opacity:0.839" fill="#b597ff" d="M 386.5,368.5 C 385.089,370.914 383.089,372.581 380.5,373.5C 381.911,371.086 383.911,369.419 386.5,368.5 Z"/></g>
<g><path style="opacity:0.631" fill="#c9beff" d="M 302.5,373.5 C 302.573,375.027 301.906,376.027 300.5,376.5C 300.427,374.973 301.094,373.973 302.5,373.5 Z"/></g>
<g><path style="opacity:0.631" fill="#c6b8ff" d="M 297.5,379.5 C 297.573,381.027 296.906,382.027 295.5,382.5C 295.427,380.973 296.094,379.973 297.5,379.5 Z"/></g>
<g><path style="opacity:0.882" fill="#b599ff" d="M 292.5,385.5 C 290.761,388.243 288.427,390.243 285.5,391.5C 287.239,388.757 289.573,386.757 292.5,385.5 Z"/></g>
<g><path style="opacity:0.016" fill="#dce5ff" d="M 278.5,398.5 C 277.365,400.213 275.698,400.88 273.5,400.5C 274.93,399.463 276.597,398.796 278.5,398.5 Z"/></g>
<g><path style="opacity:0.763" fill="#b8a0ff" d="M 272.5,400.5 C 282.653,401.494 292.986,401.828 303.5,401.5C 292.66,402.824 281.66,402.824 270.5,401.5C 270.957,400.702 271.624,400.369 272.5,400.5 Z"/></g>
</svg>
